<?xml version="1.0" encoding="UTF-8"?>
<svg id="Layer_2" data-name="Layer 2" xmlns="http://www.w3.org/2000/svg" viewBox="0 0 800 800">
  <g>
    <path d="M325.13,541.84c-68.72-36.93-73.42-242.54-39.85-224.61,12.87,8.57,17.15,23.97,21.76,39.22,2.92,9.31,12.23,51.4,17.8,24.45,7.02-33.74,15.29-78.4,28.27-111.32,5.48-12.43,10.57-26.12,21.76-29.27,7.36-1.02,11.98,5.9,13.7,13.27,1.76,7.2,1.29,15.54.31,22.95-3.68,27.61-12.05,59.03-15.76,84.96-11.2,75.96,59.15-145.71,82.99-113.92,8.12,11.67,6.26,25.27,1.79,38.8-9.41,25.8-21.4,50.62-31.85,76.18-2.85,6.79-11.83,28.92-8.94,29.43,1.2.76,4.23-1.9,8.1-6.35,4.85-5.62,10.33-12.93,15.2-19.22,21.96-28.31,73.79-95.68,73.35-45.36-1.61,11.78-6.74,19.79-13.91,30.76-9.28,15.14-40.02,48.66-39.92,65.51.51,6.57,7.51,14.58,16.22,4.87,8.73-9.72,43.22-41.27,56.17-38.13,2.43,1.12,3.06,4.47,2.36,8.84-22.31,82.59-138.22,187.27-209.56,148.93Z"/>
    <path d="M406.24,118.38c119.01,0,215.48,96.47,215.48,215.48,0,118.89-96.29,215.29-215.14,215.47.36-.15.73-.3,1.09-.46,29.18-12.58,59.4-35.44,85.08-64.37,25.52-28.75,43.83-60.36,51.57-89,.09-.34.17-.68.22-1.03,2.11-13.25-4.92-18.02-8.04-19.46-.58-.27-1.19-.48-1.82-.63-11.62-2.82-26.46,7.08-38.09,16.02-9.89,7.6-20.17,17.04-25.99,23.13,3.25-10.07,17-28.21,24.84-38.55,5.29-6.97,9.86-13,12.83-17.83,7.21-11.04,13.44-20.6,15.37-34.75.06-.42.09-.84.09-1.26.13-15.04-4.25-24.21-13.03-27.26-15.85-5.5-36.16,13.62-66.64,51.75,1.2-2.77,2.4-5.52,3.59-8.24,6.74-15.43,13.71-31.39,19.62-47.6.04-.1.07-.19.1-.29,4.15-12.58,8.35-31.19-3.07-47.62-.07-.1-.14-.19-.21-.29-3.89-5.19-9.28-7.68-15.2-7.03-16.24,1.79-31.48,27.89-57.7,85.13,2.9-14,5.78-28.33,7.58-41.84,1.43-10.87,1.27-19.31-.5-26.58-3.3-14.05-13.23-22.42-24.76-20.84-.45.06-.9.15-1.33.28-14.84,4.17-21.23,18.87-26.87,31.84-.44,1-.87,2.01-1.31,3-.05.12-.1.24-.15.36-11.11,28.17-18.87,64.75-25.12,95.24-.16-.58-.3-1.09-.42-1.52-.7-2.56-1.26-4.6-1.73-6.12l-.44-1.47c-4.64-15.4-9.9-32.85-25.32-43.12-.27-.18-.54-.34-.83-.5-7.42-3.96-18.65-3.79-25.9,9.74-10.47,19.55-12.02,68.72-3.68,116.92,4.49,25.93,11.51,49.55,20.32,68.32,1.41,3,2.86,5.88,4.36,8.64-56.93-38.78-94.32-104.12-94.32-178.2,0-119,96.47-215.48,215.48-215.48Z"/>
  </g>
  <g>
    <path d="M327.42,681.62c-7.76,0-13.86-2.22-18.3-6.66s-6.66-10.54-6.66-18.3v-32.58h-20.52v-18.72h20.52v-21.49h20.8v21.49h29.81v18.72h-29.81v31.89c0,2.03.53,3.7,1.59,4.99,1.06,1.3,2.61,1.94,4.65,1.94h22.88v18.72h-24.96Z"/>
    <path d="M366.65,681.62v-76.26h17.05v11.79h.28c.28-3.88,1.57-7.05,3.88-9.5,2.31-2.45,5.27-3.67,8.87-3.67,3.33,0,6.22,1.18,8.67,3.54,2.45,2.36,4.04,5.43,4.78,9.22.28-3.88,1.62-6.98,4.02-9.29,2.4-2.31,5.41-3.47,9.01-3.47,4.53,0,8.34,1.8,11.44,5.41,3.1,3.6,4.64,8.27,4.64,14v58.23h-17.89v-55.88c0-4.44-1.76-6.66-5.27-6.66-3.33,0-4.99,2.22-4.99,6.66v55.88h-16.36v-55.88c0-4.44-1.66-6.66-4.99-6.66-3.51,0-5.27,2.22-5.27,6.66v55.88h-17.89Z"/>
    <path d="M454.28,681.62v-18.02l37.71-40.21h-36.33v-18.02h60.87v18.02l-37.71,40.21h39.24v18.02h-63.78Z"/>
  </g>
</svg>